<mxfile host="Electron" modified="2023-06-27T06:01:14.992Z" agent="Mozilla/5.0 (Windows NT 10.0; Win64; x64) AppleWebKit/537.36 (KHTML, like Gecko) draw.io/21.4.0 Chrome/112.0.5615.204 Electron/24.5.1 Safari/537.36" etag="d9H4KZJhBYZTOPDImw1M" version="21.4.0" type="device">
  <diagram name="Страница 1" id="t_vg89urdh1FckDXaAt-">
    <mxGraphModel dx="4144" dy="2656" grid="0" gridSize="10" guides="1" tooltips="1" connect="1" arrows="1" fold="1" page="1" pageScale="1" pageWidth="3300" pageHeight="2339" math="0" shadow="0">
      <root>
        <mxCell id="0" />
        <mxCell id="1" parent="0" />
        <mxCell id="n9i95aWiuK1v4UaBcJTa-130" value="" style="endArrow=none;html=1;rounded=0;fontSize=33;startSize=8;endSize=8;curved=1;fontFamily=ISOCPEUR;" parent="1" edge="1">
          <mxGeometry width="50" height="50" relative="1" as="geometry">
            <mxPoint x="2845" y="1381" as="sourcePoint" />
            <mxPoint x="2845.21" y="525" as="targetPoint" />
          </mxGeometry>
        </mxCell>
        <mxCell id="n9i95aWiuK1v4UaBcJTa-122" value="" style="endArrow=none;html=1;rounded=0;fontSize=33;startSize=8;endSize=8;curved=1;fontFamily=ISOCPEUR;" parent="1" source="n9i95aWiuK1v4UaBcJTa-57" edge="1">
          <mxGeometry width="50" height="50" relative="1" as="geometry">
            <mxPoint x="2426" y="1633" as="sourcePoint" />
            <mxPoint x="2426" y="525" as="targetPoint" />
          </mxGeometry>
        </mxCell>
        <mxCell id="n9i95aWiuK1v4UaBcJTa-116" value="ч" style="endArrow=none;html=1;rounded=0;fontSize=33;startSize=8;endSize=8;curved=1;fontColor=#FFFFFF;fontFamily=ISOCPEUR;" parent="1" edge="1">
          <mxGeometry x="0.3766" y="-170" width="50" height="50" relative="1" as="geometry">
            <mxPoint x="2826" y="2030" as="sourcePoint" />
            <mxPoint x="2826" y="1670" as="targetPoint" />
            <mxPoint as="offset" />
          </mxGeometry>
        </mxCell>
        <mxCell id="n9i95aWiuK1v4UaBcJTa-115" value="" style="endArrow=none;html=1;rounded=0;fontSize=33;startSize=8;endSize=8;curved=1;entryX=0.499;entryY=0.941;entryDx=0;entryDy=0;entryPerimeter=0;fontFamily=ISOCPEUR;" parent="1" target="n9i95aWiuK1v4UaBcJTa-57" edge="1">
          <mxGeometry width="50" height="50" relative="1" as="geometry">
            <mxPoint x="2428" y="2030" as="sourcePoint" />
            <mxPoint x="2427.52" y="1670" as="targetPoint" />
          </mxGeometry>
        </mxCell>
        <mxCell id="n9i95aWiuK1v4UaBcJTa-92" value="ч" style="endArrow=none;html=1;rounded=0;fontSize=33;startSize=8;endSize=8;curved=1;fontColor=#FFFFFF;fontFamily=ISOCPEUR;" parent="1" edge="1">
          <mxGeometry x="0.306" y="-120" width="50" height="50" relative="1" as="geometry">
            <mxPoint x="436" y="2094" as="sourcePoint" />
            <mxPoint x="436" y="525" as="targetPoint" />
            <mxPoint as="offset" />
          </mxGeometry>
        </mxCell>
        <mxCell id="n9i95aWiuK1v4UaBcJTa-39" value="" style="endArrow=none;html=1;rounded=0;fontSize=33;startSize=8;endSize=8;curved=1;fontFamily=ISOCPEUR;" parent="1" edge="1" source="TADvTj0M6922FNV51gR_-40">
          <mxGeometry width="50" height="50" relative="1" as="geometry">
            <mxPoint x="1741" y="1365" as="sourcePoint" />
            <mxPoint x="1741" y="242" as="targetPoint" />
          </mxGeometry>
        </mxCell>
        <mxCell id="n9i95aWiuK1v4UaBcJTa-29" value="ч" style="endArrow=none;html=1;rounded=0;fontSize=33;startSize=8;endSize=8;curved=1;fontColor=#FFFFFF;fontFamily=ISOCPEUR;" parent="1" edge="1">
          <mxGeometry x="0.306" y="-120" width="50" height="50" relative="1" as="geometry">
            <mxPoint x="1031.0900000000001" y="1040" as="sourcePoint" />
            <mxPoint x="1031" y="525" as="targetPoint" />
            <mxPoint as="offset" />
          </mxGeometry>
        </mxCell>
        <mxCell id="n9i95aWiuK1v4UaBcJTa-27" value="" style="shape=display;whiteSpace=wrap;html=1;fontSize=33;fontFamily=ISOCPEUR;" parent="1" vertex="1">
          <mxGeometry x="1596" y="631" width="320" height="85" as="geometry" />
        </mxCell>
        <mxCell id="n9i95aWiuK1v4UaBcJTa-15" style="edgeStyle=orthogonalEdgeStyle;rounded=0;orthogonalLoop=1;jettySize=auto;html=1;endArrow=none;endFill=0;strokeWidth=1;startArrow=classic;startFill=1;fontSize=33;fontFamily=ISOCPEUR;" parent="1" edge="1">
          <mxGeometry relative="1" as="geometry">
            <mxPoint x="1391" y="1040" as="targetPoint" />
            <mxPoint x="657" y="754" as="sourcePoint" />
            <Array as="points">
              <mxPoint x="1391" y="754" />
            </Array>
          </mxGeometry>
        </mxCell>
        <mxCell id="TADvTj0M6922FNV51gR_-8" value="&lt;font style=&quot;font-size: 33px;&quot; face=&quot;Isocpeur&quot;&gt;Теория&lt;/font&gt;" style="shape=display;whiteSpace=wrap;html=1;fontSize=33;fontFamily=ISOCPEUR;" parent="1" vertex="1">
          <mxGeometry x="1576" y="641" width="330" height="85" as="geometry" />
        </mxCell>
        <mxCell id="TADvTj0M6922FNV51gR_-11" value="&lt;font style=&quot;font-size: 33px;&quot; face=&quot;Isocpeur&quot;&gt;Заставка&lt;/font&gt;" style="shape=display;whiteSpace=wrap;html=1;fontSize=33;fontFamily=ISOCPEUR;" parent="1" vertex="1">
          <mxGeometry x="1566" y="280" width="330" height="85" as="geometry" />
        </mxCell>
        <mxCell id="TADvTj0M6922FNV51gR_-12" value="&lt;font face=&quot;Isocpeur&quot; style=&quot;font-size: 33px;&quot;&gt;&lt;span style=&quot;font-size: 33px;&quot;&gt;Главная форма&lt;/span&gt;&lt;/font&gt;" style="shape=display;whiteSpace=wrap;html=1;align=center;fontSize=33;fontFamily=ISOCPEUR;" parent="1" vertex="1">
          <mxGeometry x="1566" y="393" width="330" height="85" as="geometry" />
        </mxCell>
        <mxCell id="TADvTj0M6922FNV51gR_-25" style="edgeStyle=orthogonalEdgeStyle;rounded=0;orthogonalLoop=1;jettySize=auto;html=1;endArrow=none;endFill=0;startArrow=classic;startFill=1;fontSize=33;fontFamily=ISOCPEUR;" parent="1" edge="1">
          <mxGeometry relative="1" as="geometry">
            <mxPoint x="2846" y="525" as="targetPoint" />
            <mxPoint x="436" y="525" as="sourcePoint" />
            <Array as="points">
              <mxPoint x="1195.91" y="525" />
            </Array>
          </mxGeometry>
        </mxCell>
        <mxCell id="TADvTj0M6922FNV51gR_-31" value="&lt;span style=&quot;font-size: 33px;&quot;&gt;Тесты&lt;/span&gt;" style="shape=display;whiteSpace=wrap;html=1;fontFamily=ISOCPEUR;fontSize=33;" parent="1" vertex="1">
          <mxGeometry x="2666.29" y="631.39" width="330" height="85" as="geometry" />
        </mxCell>
        <mxCell id="TADvTj0M6922FNV51gR_-34" value="&lt;font face=&quot;Isocpeur&quot; style=&quot;font-size: 33px;&quot;&gt;&lt;span style=&quot;font-size: 33px;&quot;&gt;Главное меню&lt;/span&gt;&lt;/font&gt;" style="shape=display;whiteSpace=wrap;html=1;fontSize=33;fontFamily=ISOCPEUR;" parent="1" vertex="1">
          <mxGeometry x="863.3100000000001" y="641" width="330" height="85" as="geometry" />
        </mxCell>
        <mxCell id="TADvTj0M6922FNV51gR_-75" value="&lt;font face=&quot;Isocpeur&quot; style=&quot;font-size: 33px;&quot;&gt;help.chm&lt;/font&gt;" style="strokeWidth=1;html=1;shape=mxgraph.flowchart.direct_data;whiteSpace=wrap;fontSize=33;fontFamily=ISOCPEUR;" parent="1" vertex="1">
          <mxGeometry x="863.3100000000001" y="894" width="330" height="85" as="geometry" />
        </mxCell>
        <mxCell id="TADvTj0M6922FNV51gR_-90" value="Загрузка вопросов" style="rounded=0;whiteSpace=wrap;html=1;fontFamily=ISOCPEUR;fontSize=33;" parent="1" vertex="1">
          <mxGeometry x="2666.29" y="851.39" width="330" height="85" as="geometry" />
        </mxCell>
        <mxCell id="TADvTj0M6922FNV51gR_-93" value="&lt;font face=&quot;Isocpeur&quot; style=&quot;font-size: 33px;&quot;&gt;*.txt&lt;/font&gt;" style="strokeWidth=1;html=1;shape=mxgraph.flowchart.direct_data;whiteSpace=wrap;fontSize=33;fontFamily=ISOCPEUR;" parent="1" vertex="1">
          <mxGeometry x="2666.29" y="961.39" width="330" height="85" as="geometry" />
        </mxCell>
        <mxCell id="TADvTj0M6922FNV51gR_-114" value="&lt;font style=&quot;font-size: 33px;&quot;&gt;Прогрузка информации&lt;/font&gt;" style="rounded=0;whiteSpace=wrap;html=1;fontFamily=ISOCPEUR;fontSize=33;" parent="1" vertex="1">
          <mxGeometry x="2263" y="1541" width="330" height="85" as="geometry" />
        </mxCell>
        <mxCell id="TADvTj0M6922FNV51gR_-242" value="" style="edgeStyle=orthogonalEdgeStyle;rounded=0;orthogonalLoop=1;jettySize=auto;html=1;endArrow=none;endFill=0;" parent="1" edge="1">
          <mxGeometry relative="1" as="geometry">
            <mxPoint x="1166.0900000000001" y="1478.54" as="sourcePoint" />
          </mxGeometry>
        </mxCell>
        <mxCell id="TADvTj0M6922FNV51gR_-255" value="" style="edgeStyle=orthogonalEdgeStyle;rounded=0;orthogonalLoop=1;jettySize=auto;html=1;endArrow=none;endFill=0;fontSize=33;fontFamily=ISOCPEUR;" parent="1" edge="1">
          <mxGeometry relative="1" as="geometry">
            <mxPoint x="657" y="754" as="targetPoint" />
            <Array as="points">
              <mxPoint x="657.28" y="775.02" />
              <mxPoint x="657.28" y="775.02" />
            </Array>
            <mxPoint x="657" y="773.56" as="sourcePoint" />
          </mxGeometry>
        </mxCell>
        <mxCell id="n9i95aWiuK1v4UaBcJTa-7" value="" style="endArrow=none;html=1;rounded=0;fontSize=33;startSize=8;endSize=8;curved=1;fontFamily=ISOCPEUR;" parent="1" edge="1">
          <mxGeometry width="50" height="50" relative="1" as="geometry">
            <mxPoint x="656.62" y="880" as="sourcePoint" />
            <mxPoint x="656.62" y="860" as="targetPoint" />
          </mxGeometry>
        </mxCell>
        <mxCell id="n9i95aWiuK1v4UaBcJTa-12" value="&lt;font face=&quot;Isocpeur&quot; style=&quot;font-size: 33px;&quot;&gt;&lt;span style=&quot;font-size: 33px;&quot;&gt;Справка&lt;/span&gt;&lt;/font&gt;" style="shape=display;whiteSpace=wrap;html=1;fontSize=33;fontFamily=ISOCPEUR;" parent="1" vertex="1">
          <mxGeometry x="846.0000000000001" y="775" width="330" height="85" as="geometry" />
        </mxCell>
        <mxCell id="n9i95aWiuK1v4UaBcJTa-13" value="&lt;font face=&quot;Isocpeur&quot; style=&quot;font-size: 33px;&quot;&gt;&lt;span style=&quot;font-size: 33px;&quot;&gt;Выход&lt;/span&gt;&lt;/font&gt;" style="shape=display;whiteSpace=wrap;html=1;fontSize=33;fontFamily=ISOCPEUR;" parent="1" vertex="1">
          <mxGeometry x="486.0000000000001" y="775" width="330" height="85" as="geometry" />
        </mxCell>
        <mxCell id="TADvTj0M6922FNV51gR_-38" value="&lt;font style=&quot;font-size: 33px;&quot;&gt;Прогрузка информации&lt;/font&gt;" style="rounded=0;whiteSpace=wrap;html=1;fontFamily=ISOCPEUR;fontSize=33;" parent="1" vertex="1">
          <mxGeometry x="1579" y="866" width="330" height="85" as="geometry" />
        </mxCell>
        <mxCell id="n9i95aWiuK1v4UaBcJTa-41" value="" style="endArrow=classic;html=1;rounded=0;fontSize=33;startSize=8;endSize=8;curved=1;fontFamily=ISOCPEUR;" parent="1" edge="1">
          <mxGeometry width="50" height="50" relative="1" as="geometry">
            <mxPoint x="1741" y="752.6700000000001" as="sourcePoint" />
            <mxPoint x="1546" y="752.6700000000001" as="targetPoint" />
          </mxGeometry>
        </mxCell>
        <mxCell id="n9i95aWiuK1v4UaBcJTa-42" value="" style="endArrow=classic;html=1;rounded=0;fontSize=33;startSize=8;endSize=8;curved=1;startArrow=none;startFill=0;endFill=1;fontFamily=ISOCPEUR;" parent="1" edge="1">
          <mxGeometry width="50" height="50" relative="1" as="geometry">
            <mxPoint x="2321" y="1243" as="sourcePoint" />
            <mxPoint x="2321" y="610" as="targetPoint" />
          </mxGeometry>
        </mxCell>
        <mxCell id="n9i95aWiuK1v4UaBcJTa-52" value="" style="endArrow=classic;html=1;rounded=0;fontSize=33;startSize=8;endSize=8;curved=1;fontFamily=ISOCPEUR;" parent="1" edge="1">
          <mxGeometry width="50" height="50" relative="1" as="geometry">
            <mxPoint x="1546" y="752" as="sourcePoint" />
            <mxPoint x="1546" y="580" as="targetPoint" />
          </mxGeometry>
        </mxCell>
        <mxCell id="n9i95aWiuK1v4UaBcJTa-53" value="" style="endArrow=classic;html=1;rounded=0;fontSize=33;startSize=8;endSize=8;curved=1;fontFamily=ISOCPEUR;" parent="1" edge="1">
          <mxGeometry width="50" height="50" relative="1" as="geometry">
            <mxPoint x="1546" y="580" as="sourcePoint" />
            <mxPoint x="1036" y="580" as="targetPoint" />
          </mxGeometry>
        </mxCell>
        <mxCell id="n9i95aWiuK1v4UaBcJTa-54" value="" style="endArrow=none;html=1;rounded=0;fontSize=33;startSize=8;endSize=8;curved=1;fontFamily=ISOCPEUR;" parent="1" edge="1">
          <mxGeometry width="50" height="50" relative="1" as="geometry">
            <mxPoint x="1740" y="1243" as="sourcePoint" />
            <mxPoint x="2321" y="1243" as="targetPoint" />
          </mxGeometry>
        </mxCell>
        <mxCell id="n9i95aWiuK1v4UaBcJTa-55" value="" style="endArrow=classic;html=1;rounded=0;fontSize=33;startSize=8;endSize=8;curved=1;fontFamily=ISOCPEUR;" parent="1" edge="1">
          <mxGeometry width="50" height="50" relative="1" as="geometry">
            <mxPoint x="2321" y="610" as="sourcePoint" />
            <mxPoint x="1741" y="610" as="targetPoint" />
          </mxGeometry>
        </mxCell>
        <mxCell id="n9i95aWiuK1v4UaBcJTa-56" value="" style="shape=display;whiteSpace=wrap;html=1;fontSize=33;fontFamily=ISOCPEUR;" parent="1" vertex="1">
          <mxGeometry x="2283" y="1410" width="320" height="85" as="geometry" />
        </mxCell>
        <mxCell id="n9i95aWiuK1v4UaBcJTa-57" value="&lt;font style=&quot;font-size: 33px;&quot; face=&quot;Isocpeur&quot;&gt;Визуаизация&lt;/font&gt;" style="shape=display;whiteSpace=wrap;html=1;fontSize=33;fontFamily=ISOCPEUR;" parent="1" vertex="1">
          <mxGeometry x="2263" y="1420" width="330" height="85" as="geometry" />
        </mxCell>
        <mxCell id="n9i95aWiuK1v4UaBcJTa-88" value="&lt;font style=&quot;font-size: 33px;&quot; face=&quot;Isocpeur&quot;&gt;&amp;nbsp; Вернуться в меню&lt;/font&gt;" style="shape=display;whiteSpace=wrap;html=1;fontSize=33;fontFamily=ISOCPEUR;" parent="1" vertex="1">
          <mxGeometry x="1206" y="775" width="330" height="85" as="geometry" />
        </mxCell>
        <mxCell id="n9i95aWiuK1v4UaBcJTa-89" value="&lt;font face=&quot;Isocpeur&quot; style=&quot;font-size: 33px;&quot;&gt;&lt;span style=&quot;font-size: 33px;&quot;&gt;Выход&lt;/span&gt;&lt;/font&gt;" style="shape=display;whiteSpace=wrap;html=1;fontSize=33;fontFamily=ISOCPEUR;" parent="1" vertex="1">
          <mxGeometry x="268.3600000000001" y="641" width="330" height="85" as="geometry" />
        </mxCell>
        <mxCell id="n9i95aWiuK1v4UaBcJTa-95" value="" style="endArrow=classic;html=1;rounded=0;fontSize=33;startSize=8;endSize=8;curved=1;fontFamily=ISOCPEUR;" parent="1" edge="1">
          <mxGeometry width="50" height="50" relative="1" as="geometry">
            <mxPoint x="657" y="880" as="sourcePoint" />
            <mxPoint x="436.0000000000001" y="880" as="targetPoint" />
          </mxGeometry>
        </mxCell>
        <mxCell id="n9i95aWiuK1v4UaBcJTa-96" value="" style="endArrow=none;html=1;rounded=0;fontSize=33;startSize=8;endSize=8;curved=1;fontFamily=ISOCPEUR;endFill=0;" parent="1" edge="1">
          <mxGeometry width="50" height="50" relative="1" as="geometry">
            <mxPoint x="1391" y="1040" as="sourcePoint" />
            <mxPoint x="461" y="1036" as="targetPoint" />
          </mxGeometry>
        </mxCell>
        <mxCell id="n9i95aWiuK1v4UaBcJTa-97" value="" style="endArrow=classic;html=1;rounded=0;fontSize=33;startSize=8;endSize=8;curved=1;fontFamily=ISOCPEUR;" parent="1" edge="1">
          <mxGeometry width="50" height="50" relative="1" as="geometry">
            <mxPoint x="246" y="1034" as="sourcePoint" />
            <mxPoint x="246" y="380" as="targetPoint" />
          </mxGeometry>
        </mxCell>
        <mxCell id="n9i95aWiuK1v4UaBcJTa-98" value="" style="endArrow=none;html=1;rounded=0;fontSize=33;startSize=8;endSize=8;curved=1;endFill=0;fontFamily=ISOCPEUR;" parent="1" edge="1">
          <mxGeometry width="50" height="50" relative="1" as="geometry">
            <mxPoint x="1741" y="380" as="sourcePoint" />
            <mxPoint x="246" y="380" as="targetPoint" />
          </mxGeometry>
        </mxCell>
        <mxCell id="n9i95aWiuK1v4UaBcJTa-100" value="" style="endArrow=none;html=1;rounded=0;fontSize=33;startSize=8;endSize=8;curved=1;fontFamily=ISOCPEUR;" parent="1" edge="1">
          <mxGeometry width="50" height="50" relative="1" as="geometry">
            <mxPoint x="2013" y="2030" as="sourcePoint" />
            <mxPoint x="2013" y="1670" as="targetPoint" />
          </mxGeometry>
        </mxCell>
        <mxCell id="n9i95aWiuK1v4UaBcJTa-101" value="&lt;font face=&quot;Isocpeur&quot; style=&quot;font-size: 33px;&quot;&gt;Кэш прямого отображения&lt;/font&gt;" style="shape=display;whiteSpace=wrap;html=1;fontSize=33;fontFamily=ISOCPEUR;" parent="1" vertex="1">
          <mxGeometry x="2253" y="1690" width="330" height="85" as="geometry" />
        </mxCell>
        <mxCell id="n9i95aWiuK1v4UaBcJTa-102" value="&lt;font face=&quot;Isocpeur&quot; style=&quot;font-size: 33px;&quot;&gt;Ассоциативный кэш&lt;/font&gt;" style="shape=display;whiteSpace=wrap;html=1;fontSize=33;fontFamily=ISOCPEUR;" parent="1" vertex="1">
          <mxGeometry x="1843" y="1690" width="330" height="85" as="geometry" />
        </mxCell>
        <mxCell id="n9i95aWiuK1v4UaBcJTa-103" style="edgeStyle=orthogonalEdgeStyle;rounded=0;orthogonalLoop=1;jettySize=auto;html=1;endArrow=classic;endFill=1;startArrow=none;startFill=0;fontSize=33;fontFamily=ISOCPEUR;" parent="1" edge="1">
          <mxGeometry relative="1" as="geometry">
            <mxPoint x="2013.44" y="1670" as="targetPoint" />
            <mxPoint x="2428" y="1670" as="sourcePoint" />
            <Array as="points">
              <mxPoint x="2012.94" y="1670.5500000000002" />
              <mxPoint x="2012.94" y="1670.5500000000002" />
            </Array>
          </mxGeometry>
        </mxCell>
        <mxCell id="n9i95aWiuK1v4UaBcJTa-106" value="" style="shape=display;whiteSpace=wrap;html=1;fontSize=33;fontFamily=ISOCPEUR;" parent="1" vertex="1">
          <mxGeometry x="2653" y="1690" width="330" height="85" as="geometry" />
        </mxCell>
        <mxCell id="n9i95aWiuK1v4UaBcJTa-109" value="" style="endArrow=none;html=1;rounded=0;fontSize=33;startSize=8;endSize=8;curved=1;fontFamily=ISOCPEUR;" parent="1" edge="1">
          <mxGeometry width="50" height="50" relative="1" as="geometry">
            <mxPoint x="1796" y="2030" as="sourcePoint" />
            <mxPoint x="2826" y="2030" as="targetPoint" />
          </mxGeometry>
        </mxCell>
        <mxCell id="n9i95aWiuK1v4UaBcJTa-111" value="&lt;font style=&quot;font-size: 33px;&quot; face=&quot;Isocpeur&quot;&gt;Поиск в кэш&lt;/font&gt;" style="shape=display;whiteSpace=wrap;html=1;fontSize=33;fontFamily=ISOCPEUR;" parent="1" vertex="1">
          <mxGeometry x="1843" y="1800" width="330" height="85" as="geometry" />
        </mxCell>
        <mxCell id="n9i95aWiuK1v4UaBcJTa-112" value="&lt;font style=&quot;font-size: 33px;&quot; face=&quot;Isocpeur&quot;&gt;Поиск в кэш&lt;/font&gt;" style="shape=display;whiteSpace=wrap;html=1;fontSize=33;fontFamily=ISOCPEUR;" parent="1" vertex="1">
          <mxGeometry x="2263" y="1810" width="330" height="85" as="geometry" />
        </mxCell>
        <mxCell id="n9i95aWiuK1v4UaBcJTa-113" value="&lt;font style=&quot;font-size: 33px;&quot; face=&quot;Isocpeur&quot;&gt;Поиск в кэш&lt;/font&gt;" style="shape=display;whiteSpace=wrap;html=1;fontSize=33;fontFamily=ISOCPEUR;" parent="1" vertex="1">
          <mxGeometry x="2653" y="1810" width="330" height="85" as="geometry" />
        </mxCell>
        <mxCell id="n9i95aWiuK1v4UaBcJTa-117" value="ч" style="endArrow=none;html=1;rounded=0;fontSize=33;startSize=8;endSize=8;curved=1;fontColor=#FFFFFF;startArrow=none;startFill=0;endFill=0;fontFamily=ISOCPEUR;" parent="1" edge="1">
          <mxGeometry x="-0.3" y="-130" width="50" height="50" relative="1" as="geometry">
            <mxPoint x="2826" y="1670" as="sourcePoint" />
            <mxPoint x="2426" y="1670" as="targetPoint" />
            <mxPoint as="offset" />
          </mxGeometry>
        </mxCell>
        <mxCell id="n9i95aWiuK1v4UaBcJTa-118" value="&lt;font style=&quot;font-size: 33px;&quot;&gt;Визуализация поиска&lt;/font&gt;" style="rounded=0;whiteSpace=wrap;html=1;fontFamily=ISOCPEUR;fontSize=33;" parent="1" vertex="1">
          <mxGeometry x="1843" y="1910" width="330" height="85" as="geometry" />
        </mxCell>
        <mxCell id="n9i95aWiuK1v4UaBcJTa-119" value="&lt;font style=&quot;font-size: 33px;&quot;&gt;Визуализация поиска&lt;/font&gt;" style="rounded=0;whiteSpace=wrap;html=1;fontFamily=ISOCPEUR;fontSize=33;" parent="1" vertex="1">
          <mxGeometry x="2263" y="1920" width="330" height="85" as="geometry" />
        </mxCell>
        <mxCell id="n9i95aWiuK1v4UaBcJTa-120" value="&lt;font style=&quot;font-size: 33px;&quot;&gt;Визуализация поиска&lt;/font&gt;" style="rounded=0;whiteSpace=wrap;html=1;fontFamily=ISOCPEUR;fontSize=33;" parent="1" vertex="1">
          <mxGeometry x="2653" y="1930" width="330" height="85" as="geometry" />
        </mxCell>
        <mxCell id="n9i95aWiuK1v4UaBcJTa-121" value="&lt;font face=&quot;ISOCPEUR&quot; style=&quot;font-size: 33px;&quot;&gt;&lt;span style=&quot;font-size: 33px;&quot;&gt;Множественно-&lt;br style=&quot;font-size: 33px;&quot;&gt;ассоциативный кэш&lt;/span&gt;&lt;/font&gt;" style="text;html=1;align=center;verticalAlign=middle;resizable=0;points=[];autosize=1;strokeColor=none;fillColor=none;fontSize=33;fontFamily=ISOCPEUR;" parent="1" vertex="1">
          <mxGeometry x="2696" y="1680" width="290" height="90" as="geometry" />
        </mxCell>
        <mxCell id="n9i95aWiuK1v4UaBcJTa-123" value="" style="endArrow=classic;html=1;rounded=0;fontSize=33;startSize=8;endSize=8;curved=1;startArrow=none;startFill=0;endFill=1;fontFamily=ISOCPEUR;" parent="1" edge="1">
          <mxGeometry width="50" height="50" relative="1" as="geometry">
            <mxPoint x="1796" y="2030" as="sourcePoint" />
            <mxPoint x="1796" y="1390" as="targetPoint" />
          </mxGeometry>
        </mxCell>
        <mxCell id="n9i95aWiuK1v4UaBcJTa-124" value="" style="endArrow=none;html=1;rounded=0;fontSize=33;startSize=8;endSize=8;curved=1;startArrow=none;startFill=0;endFill=0;fontFamily=ISOCPEUR;" parent="1" edge="1">
          <mxGeometry width="50" height="50" relative="1" as="geometry">
            <mxPoint x="1796" y="1390" as="sourcePoint" />
            <mxPoint x="2427" y="1390" as="targetPoint" />
          </mxGeometry>
        </mxCell>
        <mxCell id="n9i95aWiuK1v4UaBcJTa-127" value="Проверка" style="shape=display;whiteSpace=wrap;html=1;fontFamily=ISOCPEUR;fontSize=33;" parent="1" vertex="1">
          <mxGeometry x="2666.29" y="1181.39" width="330" height="85" as="geometry" />
        </mxCell>
        <mxCell id="n9i95aWiuK1v4UaBcJTa-128" value="Вывод результата" style="rounded=0;whiteSpace=wrap;html=1;fontFamily=ISOCPEUR;fontSize=33;" parent="1" vertex="1">
          <mxGeometry x="2676.29" y="1281.39" width="330" height="85" as="geometry" />
        </mxCell>
        <mxCell id="n9i95aWiuK1v4UaBcJTa-129" value="&lt;font face=&quot;ISOCPEUR&quot; style=&quot;font-size: 33px;&quot;&gt;Выбор ответов&lt;/font&gt;" style="shape=manualInput;whiteSpace=wrap;html=1;fontSize=16;" parent="1" vertex="1">
          <mxGeometry x="2666.29" y="1061.39" width="330" height="85" as="geometry" />
        </mxCell>
        <mxCell id="n9i95aWiuK1v4UaBcJTa-131" value="" style="endArrow=none;html=1;rounded=0;fontSize=12;startSize=8;endSize=8;curved=1;" parent="1" edge="1">
          <mxGeometry width="50" height="50" relative="1" as="geometry">
            <mxPoint x="2845" y="1381.39" as="sourcePoint" />
            <mxPoint x="3043.89" y="1381.39" as="targetPoint" />
          </mxGeometry>
        </mxCell>
        <mxCell id="n9i95aWiuK1v4UaBcJTa-132" value="" style="endArrow=classic;html=1;rounded=0;fontSize=33;startSize=8;endSize=8;curved=1;startArrow=none;startFill=0;endFill=1;fontFamily=ISOCPEUR;" parent="1" edge="1">
          <mxGeometry width="50" height="50" relative="1" as="geometry">
            <mxPoint x="3043.89" y="1381.39" as="sourcePoint" />
            <mxPoint x="3043.89" y="611.39" as="targetPoint" />
          </mxGeometry>
        </mxCell>
        <mxCell id="n9i95aWiuK1v4UaBcJTa-133" value="" style="endArrow=classic;html=1;rounded=0;fontSize=33;startSize=8;endSize=8;curved=1;startArrow=none;startFill=0;endFill=1;fontFamily=ISOCPEUR;" parent="1" edge="1">
          <mxGeometry width="50" height="50" relative="1" as="geometry">
            <mxPoint x="3043.89" y="611.39" as="sourcePoint" />
            <mxPoint x="2845" y="611.39" as="targetPoint" />
          </mxGeometry>
        </mxCell>
        <mxCell id="n9i95aWiuK1v4UaBcJTa-134" value="" style="endArrow=classic;html=1;rounded=0;fontSize=33;startSize=8;endSize=8;curved=1;startArrow=none;startFill=0;endFill=1;fontFamily=ISOCPEUR;" parent="1" edge="1">
          <mxGeometry width="50" height="50" relative="1" as="geometry">
            <mxPoint x="2845" y="727.39" as="sourcePoint" />
            <mxPoint x="2635.89" y="727.39" as="targetPoint" />
          </mxGeometry>
        </mxCell>
        <mxCell id="n9i95aWiuK1v4UaBcJTa-135" value="" style="endArrow=classic;html=1;rounded=0;fontSize=33;startSize=8;endSize=8;curved=1;startArrow=none;startFill=0;endFill=1;fontFamily=ISOCPEUR;" parent="1" edge="1">
          <mxGeometry width="50" height="50" relative="1" as="geometry">
            <mxPoint x="2636" y="1650" as="sourcePoint" />
            <mxPoint x="2636" y="580" as="targetPoint" />
          </mxGeometry>
        </mxCell>
        <mxCell id="n9i95aWiuK1v4UaBcJTa-136" value="" style="endArrow=none;html=1;rounded=0;fontSize=33;startSize=8;endSize=8;curved=1;startArrow=none;startFill=0;endFill=0;fontFamily=ISOCPEUR;" parent="1" edge="1">
          <mxGeometry width="50" height="50" relative="1" as="geometry">
            <mxPoint x="2426" y="1650" as="sourcePoint" />
            <mxPoint x="2636" y="1650" as="targetPoint" />
          </mxGeometry>
        </mxCell>
        <mxCell id="n9i95aWiuK1v4UaBcJTa-138" value="" style="verticalLabelPosition=bottom;verticalAlign=top;html=1;shape=mxgraph.basic.arc;startAngle=0.31167632925571503;endAngle=0.6875571266747136;fontSize=16;rotation=-180;" parent="1" vertex="1">
          <mxGeometry x="2401" y="565" width="50" height="50" as="geometry" />
        </mxCell>
        <mxCell id="n9i95aWiuK1v4UaBcJTa-140" value="" style="endArrow=none;html=1;rounded=0;fontSize=12;startSize=8;endSize=8;curved=1;" parent="1" edge="1">
          <mxGeometry width="50" height="50" relative="1" as="geometry">
            <mxPoint x="2449" y="580" as="sourcePoint" />
            <mxPoint x="2636" y="580" as="targetPoint" />
          </mxGeometry>
        </mxCell>
        <mxCell id="n9i95aWiuK1v4UaBcJTa-141" value="" style="endArrow=none;html=1;rounded=0;fontSize=33;startSize=8;endSize=8;curved=1;startArrow=none;startFill=0;endFill=0;fontFamily=ISOCPEUR;" parent="1" edge="1">
          <mxGeometry width="50" height="50" relative="1" as="geometry">
            <mxPoint x="2403" y="580" as="sourcePoint" />
            <mxPoint x="1764" y="580" as="targetPoint" />
          </mxGeometry>
        </mxCell>
        <mxCell id="n9i95aWiuK1v4UaBcJTa-142" value="" style="verticalLabelPosition=bottom;verticalAlign=top;html=1;shape=mxgraph.basic.arc;startAngle=0.31167632925571503;endAngle=0.6921429005827588;fontSize=16;rotation=-180;" parent="1" vertex="1">
          <mxGeometry x="1716" y="564" width="50" height="50" as="geometry" />
        </mxCell>
        <mxCell id="n9i95aWiuK1v4UaBcJTa-143" value="" style="endArrow=none;html=1;rounded=0;fontSize=33;startSize=8;endSize=8;curved=1;fontFamily=ISOCPEUR;endFill=0;" parent="1" edge="1">
          <mxGeometry width="50" height="50" relative="1" as="geometry">
            <mxPoint x="1718" y="580" as="sourcePoint" />
            <mxPoint x="1546" y="580" as="targetPoint" />
          </mxGeometry>
        </mxCell>
        <mxCell id="2juctPhmuBO_DgQGkh8T-1" value="" style="endArrow=none;html=1;rounded=0;fontSize=12;startSize=8;endSize=8;endFill=0;edgeStyle=orthogonalEdgeStyle;entryX=0.509;entryY=0.003;entryDx=0;entryDy=0;entryPerimeter=0;" parent="1" edge="1">
          <mxGeometry width="50" height="50" relative="1" as="geometry">
            <mxPoint x="436" y="2094" as="sourcePoint" />
            <mxPoint x="1734.9519999999993" y="2159.255" as="targetPoint" />
          </mxGeometry>
        </mxCell>
        <mxCell id="2juctPhmuBO_DgQGkh8T-2" value="" style="verticalLabelPosition=bottom;verticalAlign=top;html=1;shape=mxgraph.basic.arc;startAngle=0.31167632925571503;endAngle=0.6900445298839734;fontSize=16;rotation=-180;" parent="1" vertex="1">
          <mxGeometry x="413" y="1019.9999999999999" width="50" height="50" as="geometry" />
        </mxCell>
        <mxCell id="2juctPhmuBO_DgQGkh8T-4" value="" style="endArrow=classic;html=1;rounded=0;fontSize=12;startSize=8;endSize=8;curved=1;exitX=0.94;exitY=0.69;exitDx=0;exitDy=0;exitPerimeter=0;" parent="1" source="2juctPhmuBO_DgQGkh8T-2" edge="1">
          <mxGeometry width="50" height="50" relative="1" as="geometry">
            <mxPoint x="382" y="1035" as="sourcePoint" />
            <mxPoint x="246" y="1034" as="targetPoint" />
          </mxGeometry>
        </mxCell>
        <mxCell id="3Fq11k2SxnwJ8wvjbO3X-2" value="&lt;font style=&quot;font-size: 33px;&quot; face=&quot;ISOCPEUR&quot;&gt;Конец&lt;/font&gt;" style="strokeWidth=1;html=1;shape=mxgraph.flowchart.terminator;whiteSpace=wrap;fontSize=16;" parent="1" vertex="1">
          <mxGeometry x="1571" y="2142.47" width="330" height="85" as="geometry" />
        </mxCell>
        <mxCell id="3Fq11k2SxnwJ8wvjbO3X-3" value="&lt;font style=&quot;font-size: 33px;&quot; face=&quot;ISOCPEUR&quot;&gt;Начало&lt;/font&gt;" style="strokeWidth=1;html=1;shape=mxgraph.flowchart.terminator;whiteSpace=wrap;fontSize=16;" parent="1" vertex="1">
          <mxGeometry x="1576" y="156" width="330" height="85" as="geometry" />
        </mxCell>
        <mxCell id="Sbr4lHybfniiJ5EboauX-1" value="" style="endArrow=none;html=1;rounded=0;fontSize=33;startSize=8;endSize=8;curved=1;fontFamily=ISOCPEUR;" edge="1" parent="1" target="TADvTj0M6922FNV51gR_-40">
          <mxGeometry width="50" height="50" relative="1" as="geometry">
            <mxPoint x="1741" y="1244" as="sourcePoint" />
            <mxPoint x="1741" y="242" as="targetPoint" />
          </mxGeometry>
        </mxCell>
        <mxCell id="TADvTj0M6922FNV51gR_-40" value="&lt;font face=&quot;Isocpeur&quot; style=&quot;font-size: 33px;&quot;&gt;*.htm&lt;/font&gt;" style="strokeWidth=1;html=1;shape=mxgraph.flowchart.direct_data;whiteSpace=wrap;fontSize=33;fontFamily=ISOCPEUR;" parent="1" vertex="1">
          <mxGeometry x="1576" y="976.39" width="330" height="85" as="geometry" />
        </mxCell>
        <mxCell id="Sbr4lHybfniiJ5EboauX-2" value="&lt;font face=&quot;ISOCPEUR&quot; style=&quot;font-size: 33px;&quot;&gt;Выбор раздела&lt;/font&gt;" style="shape=manualInput;whiteSpace=wrap;html=1;fontSize=16;" vertex="1" parent="1">
          <mxGeometry x="1579" y="756.0000000000001" width="330" height="85" as="geometry" />
        </mxCell>
        <mxCell id="Sbr4lHybfniiJ5EboauX-3" value="&lt;font face=&quot;ISOCPEUR&quot;&gt;&lt;span style=&quot;font-size: 33px;&quot;&gt;Выбор варианта&lt;br&gt;&lt;/span&gt;&lt;/font&gt;" style="shape=manualInput;whiteSpace=wrap;html=1;fontSize=16;" vertex="1" parent="1">
          <mxGeometry x="2666.29" y="741.0000000000001" width="330" height="85" as="geometry" />
        </mxCell>
      </root>
    </mxGraphModel>
  </diagram>
</mxfile>
